<svg width="72" height="72" viewBox="0 0 72 72" xmlns="http://www.w3.org/2000/svg"><g clip-path="url(#axyew2y3i)"><path d="M40 17a21 21 0 1 0 0 42 21 21 0 0 0 0-42ZM17 38a23 23 0 1 1 46 0 23 23 0 0 1-46 0Z" fill="url(#bxyew2y3i)"/><g filter="url(#cxyew2y3i)"><path d="M62 38a22 22 0 1 1-44 0 22 22 0 0 1 44 0Z" fill="url(#dxyew2y3i)" fill-opacity=".3"/></g><g filter="url(#exyew2y3i)"><path d="M40 17a21 21 0 1 0 0 42 21 21 0 0 0 0-42ZM17 38a23 23 0 1 1 46 0 23 23 0 0 1-46 0Z" fill="url(#fxyew2y3i)"/></g></g><defs><linearGradient id="bxyew2y3i" x1="98" y1="-13" x2="18" y2="58" gradientUnits="userSpaceOnUse"><stop offset=".5" stop-color="#2962FF"/><stop offset="1" stop-color="#D500F9"/></linearGradient><linearGradient id="dxyew2y3i" x1="98" y1="-13" x2="18" y2="58" gradientUnits="userSpaceOnUse"><stop offset=".5" stop-color="#2962FF"/><stop offset="1" stop-color="#D500F9"/></linearGradient><linearGradient id="fxyew2y3i" x1="98" y1="-13" x2="18" y2="58" gradientUnits="userSpaceOnUse"><stop offset=".5" stop-color="#2962FF"/><stop offset="1" stop-color="#D500F9"/></linearGradient><filter id="cxyew2y3i" x="0" y="-2" width="80" height="80" filterUnits="userSpaceOnUse" color-interpolation-filters="sRGB"><feFlood flood-opacity="0"/><feBlend in="SourceGraphic"/><feGaussianBlur stdDeviation="9"/></filter><filter id="exyew2y3i" x="7" y="5" width="66" height="66" filterUnits="userSpaceOnUse" color-interpolation-filters="sRGB"><feGaussianBlur stdDeviation="5"/></filter><clipPath id="axyew2y3i"><path transform="translate(0 2)" d="M0 0h72v70H0z"/></clipPath></defs></svg>