<svg width="72" height="72" viewBox="0 0 72 72" xmlns="http://www.w3.org/2000/svg"><path d="M37.4 11.48a3.04 3.04 0 0 1 5.2 0l6.93 11.7a1 1 0 0 0 .65.47l13.44 2.86a2.96 2.96 0 0 1 1.61 4.89l-9.16 10.1a.98.98 0 0 0-.25.75l1.38 13.47A3 3 0 0 1 53 58.74L40.4 53.28a1.02 1.02 0 0 0-.82 0l-12.58 5.46a3 3 0 0 1-4.21-3.02l1.38-13.47a.98.98 0 0 0-.25-.76l-9.16-10.1a2.96 2.96 0 0 1 1.61-4.88l13.44-2.86a1 1 0 0 0 .65-.47l6.92-11.7Zm3.47 1a1.01 1.01 0 0 0-1.74 0l-6.92 11.7a3.01 3.01 0 0 1-1.97 1.4l-13.43 2.87a.99.99 0 0 0-.54 1.63l9.16 10.1c.56.62.84 1.44.75 2.27L24.8 55.92a1 1 0 0 0 1.4 1.01l12.58-5.46a3.06 3.06 0 0 1 2.44 0l12.58 5.46a1 1 0 0 0 1.4-1l-1.38-13.48c-.09-.83.19-1.65.75-2.28l9.16-10.1a.99.99 0 0 0-.54-1.62l-13.43-2.87a3.01 3.01 0 0 1-1.97-1.4l-6.92-11.7Z" fill="url(#aig2r4egt)"/><g filter="url(#big2r4egt)"><path d="M38.26 11.03a1.99 1.99 0 0 1 3.48 0l6.92 12.19c.28.5.76.86 1.31.98l13.44 2.98c1.5.34 2.1 2.22 1.08 3.4L55.32 41.1c-.37.43-.55 1-.5 1.58l1.39 14.04c.15 1.58-1.4 2.74-2.81 2.1L40.8 53.13a1.96 1.96 0 0 0-1.62 0l-12.59 5.7c-1.4.63-2.96-.53-2.8-2.1l1.38-14.05a2.1 2.1 0 0 0-.5-1.58L15.5 30.58a2.08 2.08 0 0 1 1.08-3.4l13.44-2.98a2.02 2.02 0 0 0 1.31-.98l6.92-12.2Z" fill="url(#cig2r4egt)" fill-opacity=".3"/></g><g filter="url(#dig2r4egt)"><path d="M37.4 11.48a3.04 3.04 0 0 1 5.2 0l6.93 11.7a1 1 0 0 0 .65.47l13.44 2.86a2.96 2.96 0 0 1 1.61 4.89l-9.16 10.1a.98.98 0 0 0-.25.75l1.38 13.47A3 3 0 0 1 53 58.74L40.4 53.28a1.02 1.02 0 0 0-.82 0l-12.58 5.46a3 3 0 0 1-4.21-3.02l1.38-13.47a.98.98 0 0 0-.25-.76l-9.16-10.1a2.96 2.96 0 0 1 1.61-4.88l13.44-2.86a1 1 0 0 0 .65-.47l6.92-11.7Zm3.47 1a1.01 1.01 0 0 0-1.74 0l-6.92 11.7a3.01 3.01 0 0 1-1.97 1.4l-13.43 2.87a.99.99 0 0 0-.54 1.63l9.16 10.1c.56.62.84 1.44.75 2.27L24.8 55.92a1 1 0 0 0 1.4 1.01l12.58-5.46a3.06 3.06 0 0 1 2.44 0l12.58 5.46a1 1 0 0 0 1.4-1l-1.38-13.48c-.09-.83.19-1.65.75-2.28l9.16-10.1a.99.99 0 0 0-.54-1.62l-13.43-2.87a3.01 3.01 0 0 1-1.97-1.4l-6.92-11.7Z" fill="url(#eig2r4egt)"/></g><defs><linearGradient id="aig2r4egt" x1="68.16" y1="15.82" x2="21.28" y2="65.21" gradientUnits="userSpaceOnUse"><stop stop-color="#00BCE6"/><stop offset=".5" stop-color="#2962FF"/><stop offset="1" stop-color="#D500F9"/></linearGradient><linearGradient id="cig2r4egt" x1="114.26" y1="-30.14" x2="9.51" y2="60.45" gradientUnits="userSpaceOnUse"><stop offset=".5" stop-color="#2962FF"/><stop offset="1" stop-color="#D500F9"/></linearGradient><linearGradient id="eig2r4egt" x1="114.24" y1="-27.52" x2="13.21" y2="63.51" gradientUnits="userSpaceOnUse"><stop offset=".5" stop-color="#2962FF"/><stop offset="1" stop-color="#D500F9"/></linearGradient><filter id="big2r4egt" x="-3" y="-8" width="86" height="85" color-interpolation-filters="sRGB"><feFlood flood-opacity="0"/><feBlend in="SourceGraphic"/><feGaussianBlur stdDeviation="9"/></filter><filter id="dig2r4egt" x="4" y="0" width="72" height="69" filterUnits="userSpaceOnUse" color-interpolation-filters="sRGB"><feGaussianBlur stdDeviation="5"/></filter></defs></svg>